<?xml version="1.0" encoding="UTF-8"?>
<svg id="Layer_1" xmlns="http://www.w3.org/2000/svg" version="1.1" viewBox="0 0 50 50">
  <!-- Generator: Adobe Illustrator 29.4.0, SVG Export Plug-In . SVG Version: 2.1.0 Build 152)  -->
  <defs>
    <style>
      .st0 {
        fill: #00a63e;
      }
    </style>
  </defs>
  <path class="st0" d="M25,0C11.22,0,0,11.22,0,25,0,29.3,1.11,33.54,3.22,37.27L.04,48.62c-.1.37,0,.77.27,1.05.21.21.49.33.78.33.09,0,.17-.01.26-.03l11.84-2.93c3.62,1.94,7.69,2.97,11.81,2.97,13.78,0,25-11.22,25-25S38.78,0,25,0ZM37.58,33.82c-.53,1.48-3.1,2.83-4.33,3.01-1.11.16-2.51.23-4.04-.25-.93-.29-2.13-.68-3.66-1.34-6.44-2.75-10.64-9.15-10.96-9.57-.32-.42-2.62-3.44-2.62-6.55s1.66-4.65,2.25-5.29,1.28-.79,1.71-.79.86,0,1.23.02c.39.02.92-.15,1.44,1.09.53,1.27,1.82,4.39,1.98,4.71.16.32.27.69.05,1.11-.21.42-.32.69-.64,1.06s-.67.83-.96,1.11c-.32.32-.66.66-.28,1.29s1.66,2.71,3.57,4.39c2.45,2.16,4.52,2.83,5.16,3.15.64.32,1.02.26,1.39-.16.37-.42,1.6-1.85,2.03-2.48s.86-.53,1.44-.32c.59.21,3.74,1.74,4.39,2.06.64.32,1.07.48,1.23.74.16.26.16,1.53-.37,3.01Z"/>
</svg>