<?xml version="1.0" encoding="UTF-8"?>
<svg id="Layer_1" xmlns="http://www.w3.org/2000/svg" version="1.1" viewBox="0 0 48 48">
  <!-- Generator: Adobe Illustrator 29.4.0, SVG Export Plug-In . SVG Version: 2.1.0 Build 152)  -->
  <defs>
    <style>
      .st0 {
        fill: #8e24aa;
      }

      .st1 {
        fill: #f50057;
      }

      .st2 {
        fill: #ff1744;
      }

      .st3 {
        fill: #4928f4;
      }

      .st4 {
        fill: #304ffe;
      }

      .st5 {
        fill: #ff5722;
      }

      .st6 {
        fill: #673ab7;
      }

      .st7 {
        fill: #6200ea;
      }

      .st8 {
        fill: #ff6f00;
      }

      .st9 {
        fill: none;
        stroke: #fff;
        stroke-linecap: round;
        stroke-linejoin: round;
        stroke-width: 2px;
      }

      .st10 {
        fill: #ff9800;
      }

      .st11 {
        fill: #ffc107;
      }

      .st12 {
        fill: #fff;
      }

      .st13 {
        fill: #c2185b;
      }

      .st14 {
        fill: #ffecb3;
      }

      .st15 {
        fill: #ffd54f;
      }

      .st16 {
        fill: #ffe082;
      }

      .st17 {
        fill: #d81b60;
      }
    </style>
  </defs>
  <path class="st4" d="M47.56,9.97c-.53.35-1.29.67-1.61,1.03-.12.12-.19.25-.16.39v1.37l-.4,1.35-.4,1.33-.44,1.47-.91,3-.88,2.96-.67,2.23c0,.35-.01.69-.04,1.03-.09,1.28-.36,2.51-.79,3.65-.25.71-.56,1.39-.93,2.03-.13.25-.29.51-.45.75-.53.84-1.17,1.61-1.88,2.29-.55.55-1.15,1.05-1.8,1.48h-.01c-.11.09-.23.17-.36.24-.41.28-.85.52-1.31.73-.31.16-.61.29-.93.41-.07.04-.15.07-.21.09-.76.36-1.64.6-2.52.72-.05.01-.09.01-.15.03-.53.09-1.05.17-1.59.21-.24.03-.49.04-.73.04l-.95-.05-4.56-.24s-.01,0-.01,0l-2.29-.12c-.17,0-.36,0-.53-.01-.72-.03-1.41-.11-2.11-.25h-.01c-1.27-.24-2.48-.67-3.61-1.24-.63-.32-1.24-.68-1.81-1.09-.24-.17-.47-.36-.69-.56-.64-.53-1.21-1.11-1.75-1.69-.08-.08-.15-.16-.21-.24-.08-.08-.16-.17-.23-.25-.51-.64-.93-1.29-1.28-1.99-.32-.61-.57-1.27-.77-1.99-.08-.25-.15-.49-.2-.76-.01-.01-.03-.04-.03-.07-.13-.55-.25-1.12-.32-1.69-.08-.44-.12-.88-.12-1.33-.03-.17-.03-.36-.03-.53l2.55-3.93,2.49-3.84,1.13-1.75,1.03-1.57.35-.55v-1.37c.03-.31.04-.63.03-.92-.01-.93-.2-1.84-.51-2.71-.29-.92-.71-1.79-1.13-2.59-.51-.92-1.04-1.75-1.48-2.49-.65-1.09-1.11-1.99-.99-2.61.96-.23,1.97-.35,3-.35h21.33c5.57,0,10.37,3.47,12.36,8.35.21.52.4,1.07.53,1.63Z"/>
  <path class="st3" d="M48,13.33v.36l-1.84,1.07-1.17.68-1.29.75-2.59,1.51-2.53,1.47-2.59,1.49-1.03.6c0,.64-.16,1.23-.45,1.76-.41.77-1.11,1.41-1.99,1.96-.89.55-1.99.99-3.21,1.31,0,0,0-.01-.01,0-4.75,1.23-11.23.67-14.37-1.68-.88-.65-1.49-1.45-1.76-2.37-.08-.31-.12-.64-.12-.97v-9.59c.01-.2-.12-.4-.36-.6-.72-.57-2.41-1.12-4.31-1.67-1.48-.41-3.07-.83-4.4-1.23-1.05-.32-1.95-.64-2.48-.95.24-.47.52-.93.81-1.37C4.17,3.12,7.03,1.11,10.33.35c.96-.23,1.97-.35,3-.35h14.4c7.16,1.25,13.76,4.17,19.29,8.35.21.52.4,1.07.53,1.63.24.88.39,1.79.43,2.73.01.2.01.41.01.63Z"/>
  <path class="st7" d="M48,13.33v5.88l-.29.91-1,3.11-1.04,3.2-.55,1.71-.51,1.59-.49,1.51-.48,1.49-.25.79-.33,1.04c0,1.01-.03,1.91-.09,2.67-.01.08-.03.16-.03.24-.08.71-.19,1.31-.36,1.81-.01.08-.04.16-.07.23-.35.96-.87,1.57-1.64,1.97-.19.11-.4.19-.63.27-.71.24-1.6.36-2.69.43-.8.05-1.72.07-2.76.07h-.92l-1.59-.07h-.28s-2.89-.13-2.89-.13l-2.93-.12-9.67-.4-2.51-.11h-.35c-1.04-.01-1.93-.08-2.71-.19-1.12-.17-1.99-.47-2.64-.91-.93-.6-1.48-1.48-1.8-2.71-.08-.29-.15-.6-.19-.93-.13-.77-.2-1.67-.24-2.67,0-.2,0-.4-.01-.61-.01-.01,0-.01,0-.01v-.77c-.01-.39-.01-.79-.01-1.2l.07-2.15.04-1.53.05-1.79v-.25l.09-3.28.09-3.28.09-3.08.08-3.03.03-.8c0-.41-1.4-.65-2.96-.85-1.24-.16-2.6-.31-3.41-.49.07-.31.13-.61.21-.91.24-.96.6-1.87,1.05-2.73.24-.47.52-.93.81-1.37,2.88-1.27,5.88-2.25,9.01-2.89,2.75-.57,5.61-.88,8.57-.88,9.81,0,18.88,3.32,26.05,8.92.69.53,1.37,1.11,2.04,1.71.01.2.01.41.01.63Z"/>
  <path class="st6" d="M48,16.49v6.05l-.73,1.41-1.4,2.73-.75,1.44-.68,1.32-.29.57c0,.41,0,.81-.03,1.2,0,.57-.03,1.12-.07,1.63-.05.6-.13,1.15-.21,1.65-.2,1.05-.48,1.96-.88,2.71-.05.09-.11.19-.16.27-.15.24-.32.47-.51.68-.24.29-.51.55-.81.76-.45.35-.99.63-1.6.84-.76.28-1.64.47-2.68.57-.68.07-1.43.11-2.24.11l-.56.03-2.77.16h-.01l-2.95.17-3,.17-4.13.24-5.03.29-.73.04c-.68,0-1.32-.04-1.93-.12-.07-.01-.12-.03-.19-.03-.91-.15-1.73-.39-2.48-.72-.91-.4-1.69-.93-2.36-1.57-.59-.57-1.09-1.23-1.51-1.96-.09-.17-.19-.33-.27-.52-.4-.79-.72-1.67-.96-2.63-.04-.16-.08-.33-.11-.51-.08-.31-.15-.63-.19-.96-.15-.85-.23-1.76-.27-2.71h0c-.01-.4-.03-.77-.03-1.17l-.65-1.56-.09-.24-.08-.2-1-2.39-.16-.39-.96-2.31-1.07-2.57h-.01l-1.08-2.6-.39-.95v-2.12c0-.84.08-1.67.23-2.47.07-.31.13-.61.21-.91,1.13-.65,2.32-1.25,3.53-1.79,2.77-1.24,5.75-2.16,8.83-2.72,2.29-.41,4.68-.64,7.09-.64,9.75,0,18.59,3.53,25.49,9.29.27.21.52.43.77.65.63.55,1.24,1.12,1.84,1.73Z"/>
  <path class="st0" d="M48,20.47v6.85l-.76,1.59-1.44,3v.04c-.01.57-.04,1.09-.08,1.56-.13,1.53-.51,2.51-1.12,3.11-.44.45-.99.71-1.67.84-.04.01-.09.01-.13.03-.21.04-.44.07-.68.07-.83.08-1.8.03-2.92-.05-.12,0-.25-.01-.39-.03-.81-.05-1.68-.11-2.64-.15-.52-.01-1.07-.03-1.63-.03h-.03l-1.35.11h-.01l-3.03.21-3.45.27-.51.04-4.04.29-2.09.16-2.07.15c-.36,0-.71,0-1.05-.01,0,0-.01-.01-.01,0-1.51-.03-2.85-.12-4.05-.35-1.11-.19-2.08-.48-2.91-.92-.85-.41-1.56-1-2.13-1.75-.55-.73-.95-1.65-1.2-2.76h0c-.19-.91-.29-1.95-.29-3.12l-.2-.36-1.19-2.12-.17-.29-.09-.19-1.24-2.2-.61-1.11-.77-1.37-1.33-2.39-.71-1.25v-4.91c1.17-.77,2.39-1.45,3.64-2.07,1.52-.77,3.09-1.43,4.73-1.96,1.79-.59,3.65-1.05,5.56-1.36,1.93-.32,3.92-.48,5.96-.48,9.07,0,17.39,3.24,23.8,8.63.29.23.57.48.85.72,1.12,1,2.19,2.08,3.16,3.21.11.12.21.23.29.35Z"/>
  <path class="st13" d="M48,24.95v9.64c-.32-.19-.76-.41-1.31-.65-.29-.15-.63-.29-.97-.43-.51-.23-1.05-.44-1.67-.65-.13-.05-.27-.09-.41-.13-.24-.09-.49-.17-.75-.25-.79-.24-1.65-.47-2.56-.67-.35-.07-.71-.13-1.07-.19-1.16-.2-2.4-.32-3.69-.33-.11-.01-.23-.01-.33-.01l-3.43.03-4.67.03h-.01l-9.99.08c-3.17,0-5.12.76-6.29,1.07,0,0-.01,0-.01.01-1.24.32-1.63.12-1.73-2.05-.03-.6-.04-1.37-.04-2.32l-.75-.57-1.31-.99-.8-.61-.16-.12-2.21-1.68-.33-.25-.69-.53-1.28-.96-1.53-1.17v-4.53c.13-.11.25-.2.39-.28,1.93-1.33,4-2.47,6.19-3.39,1.95-.83,4-1.48,6.11-1.95.57-.12,1.16-.24,1.76-.32,1.77-.31,3.6-.45,5.45-.45,8.01,0,15.37,2.79,21.21,7.4.88.69,1.73,1.43,2.53,2.21,1.09,1.04,2.12,2.15,3.07,3.32.19.24.37.48.56.73.25.32.49.65.73.99Z"/>
  <path class="st17" d="M48,30.29v4.37c0,.87-.08,1.72-.24,2.55-.24,1.23-.65,2.4-1.21,3.49-.29.07-.63.07-1,.01-.84-.15-1.83-.59-2.89-1.16-.05-.01-.11-.04-.15-.07-.33-.17-.68-.36-1.03-.57-.71-.39-1.45-.81-2.2-1.21-.16-.08-.32-.16-.47-.24-.85-.44-1.73-.84-2.61-1.15h-.01c-.19-.07-.39-.13-.59-.19-.76-.21-1.53-.35-2.28-.35l-1.47-.43-6.49-1.88h-.01l-3.99-1.16h-.01l-1.73-.51c-5.01,0-8.09,2.13-9.59,1.32-.59-.31-.93-1.08-1.05-2.6-.04-.43-.05-.91-.05-1.47l-1.56-.76-.07-.03h-.01l-1.12-.56-1.23-.59-.09-.04-.23-.12-2.61-1.27-2-.97v-4.57c.23-.2.47-.39.71-.57.25-.2.51-.39.76-.59h.01c1.57-1.13,3.24-2.13,5.01-2.96,2.07-.99,4.27-1.75,6.55-2.24.33-.08.68-.16,1.03-.21,1.89-.36,3.84-.55,5.83-.55,7.03,0,13.48,2.28,18.68,6.12,1.51,1.12,2.91,2.36,4.19,3.71,1.05,1.11,2.03,2.31,2.91,3.56.07.09.13.19.2.27.49.72.95,1.45,1.37,2.21.28.45.52.92.76,1.39Z"/>
  <path class="st1" d="M47.76,37.21c-.24,1.23-.65,2.4-1.21,3.49-.25.49-.53.96-.84,1.41-.19.28-.39.55-.59.8-.48-.19-1.19-.45-2.05-.75h0c-.65-.24-1.4-.48-2.2-.71-.23-.07-.45-.13-.69-.2-.95-.25-1.93-.48-2.89-.61-.8-.13-1.59-.21-2.32-.21l-.61-.17h-.01l-3.23-.93-1.99-.57-2.21-.64h-.01l-.72-.2-8.71-2.51-2.51-.72-1.87-.44-3.04-.72-.37-.09h-.01l-3.05-.71h0s-.55-.13-.55-.13l-.28-.07-2.23-.52-.25-.07-1.89-1.56-1.41-1.19v-5.44c.49-.48,1-.93,1.53-1.37.16-.15.33-.28.51-.41.16-.13.33-.27.51-.4,1.21-.92,2.49-1.75,3.85-2.45,1.73-.93,3.57-1.68,5.51-2.21.37-.12.75-.23,1.13-.31,2.19-.55,4.48-.83,6.85-.83,5.96,0,11.51,1.8,16.09,4.88,2.28,1.53,4.33,3.37,6.07,5.47.88,1.05,1.68,2.16,2.39,3.33.07.09.12.17.17.27.43.71.83,1.44,1.19,2.19.33.67.63,1.33.89,2.03.43,1.07.77,2.16,1.07,3.28Z"/>
  <path class="st2" d="M45.71,42.12c-.19.28-.39.55-.59.8-.59.73-1.23,1.4-1.95,1.99-.63.52-1.29.99-2,1.39-.27-.07-.53-.15-.81-.25-.88-.31-1.8-.81-2.65-1.35-1.28-.81-2.39-1.69-2.88-2.09-.19-.16-.28-.24-.28-.24l-2.27-.2-.28-.03-2.93-.25-3.04-.27-4.49-.4-7.12-.63h-.03s-2.51-1.23-2.51-1.23l-2.53-1.23-2.04-.99-.44-.21-.55-.27-1.89-.92-2.52-1.21-.79-.39-1.12-.35v-5.96c.63-.75,1.29-1.45,2-2.13.45-.43.93-.85,1.43-1.25.08-.07.16-.13.24-.19.05-.07.12-.11.17-.13.79-.64,1.61-1.21,2.47-1.73.99-.63,2.03-1.19,3.11-1.65,1.16-.52,2.37-.96,3.63-1.29,2.17-.61,4.48-.93,6.85-.93,5.44,0,10.47,1.65,14.61,4.49,2.65,1.81,4.95,4.11,6.76,6.76.6.85,1.13,1.76,1.63,2.69.17.35.35.69.49,1.04.16.33.31.67.45,1,.28.69.53,1.39.76,2.11.43,1.33.75,2.69.95,4.11.07.47.12.93.16,1.4Z"/>
  <path class="st5" d="M43.19,44.56c0,.11,0,.23-.01.35-.63.52-1.29.99-2,1.39-.29.16-.59.32-.89.45-.31.15-.61.28-.93.4-.45-.24-1.07-.53-1.72-.81-.92-.41-1.92-.79-2.69-.91-.19-.04-.36-.05-.52-.05l-2.19-.28h-.03l-2.72-.36-2.75-.36-1.28-.16-10.08-1.31c-.65,0-1.35-.04-2.07-.13-.88-.08-1.8-.21-2.72-.4-.91-.16-1.83-.37-2.71-.6-.92-.21-1.83-.47-2.67-.71-.97-.29-1.88-.57-2.64-.83-.63-.2-1.16-.39-1.57-.53-.24-.57-.44-1.17-.59-1.79-.28-1.04-.41-2.13-.41-3.25v-2.23c.43-.71.89-1.4,1.41-2.05.95-1.25,2.03-2.4,3.2-3.41.04-.05.09-.09.13-.12h.01c.41-.39.84-.72,1.29-1.04.05-.05.11-.09.16-.13.21-.16.44-.32.68-.47,1.91-1.29,4.01-2.31,6.27-2.99,2.13-.64,4.39-.97,6.73-.97,4.65,0,9,1.37,12.63,3.72,2.68,1.72,4.99,3.99,6.75,6.64.21.31.41.61.61.93.92,1.56,1.68,3.24,2.24,5,.07.2.12.4.17.61.11.36.2.73.28,1.11.03.09.05.19.08.29.19.84.32,1.72.41,2.6h0c.08.8.12,1.6.12,2.4Z"/>
  <path class="st8" d="M40.44,44.56c0,.47-.03.97-.08,1.48-.03.24-.05.48-.08.71-.31.15-.61.28-.93.4-.6.23-1.21.41-1.84.55-.43.09-.87.17-1.31.21h-.01c-.41-.25-.89-.56-1.39-.91-.89-.63-1.83-1.33-2.57-1.91t-.03-.03c-.79-.6-1.35-1.05-1.35-1.05l-1.41.05-2.72.09-1.27.05-5.09.19-4.31.16c-.28.01-.61.01-1.03,0h-.01c-.56-.01-1.23-.05-1.96-.12-.85-.07-1.79-.15-2.73-.24-.92-.11-1.85-.21-2.75-.32-.99-.11-1.92-.23-2.72-.33-.63-.08-1.17-.15-1.61-.2-.37-.43-.71-.87-1.03-1.35-.48-.72-.89-1.48-1.21-2.29-.24-.57-.44-1.17-.59-1.79.39-1.19.89-2.31,1.49-3.39.48-.88,1.04-1.72,1.65-2.52.6-.79,1.25-1.52,1.96-2.19h0c.2-.21.4-.4.6-.57.37-.35.76-.67,1.16-.97h.01s.03-.03.04-.04c.32-.25.65-.48.99-.71,1.97-1.35,4.2-2.35,6.6-2.93,1.59-.39,3.25-.6,4.97-.6,3.39,0,6.59.81,9.4,2.28h.01c2.41,1.24,4.55,2.95,6.27,5,.95,1.09,1.76,2.29,2.43,3.56.47.85.87,1.75,1.2,2.65.03.08.05.15.08.21.23.67.43,1.36.6,2.05.12.49.21,1,.29,1.51.03.16.05.31.07.47.13.92.2,1.87.2,2.83Z"/>
  <path class="st10" d="M37.71,44.56v.13c0,.45-.04,1.03-.08,1.64-.04.45-.08.92-.12,1.36-.43.09-.87.17-1.31.21h-.01c-.51.07-1,.09-1.52.09h-2.33l-.51-.15-2.63-.8-2.67-.8-6.17-1.85-2.67-.8s-1.11.44-2.67.96h-.01c-.6.2-1.25.41-1.95.63-.87.25-1.79.51-2.69.71-.93.21-1.85.37-2.68.44-.25.03-.51.04-.73.04-.75-.41-1.47-.91-2.12-1.45-.57-.48-1.11-1-1.6-1.57-.37-.43-.71-.87-1.03-1.35.09-.6.2-1.19.36-1.76.4-1.59,1.03-3.11,1.85-4.49.45-.79.96-1.55,1.55-2.25.01-.04.05-.08.09-.11-.01-.01,0-.01,0-.01.17-.23.36-.44.55-.64h0c.55-.6,1.11-1.16,1.72-1.68.21-.17.41-.35.64-.52.04-.04.08-.07.13-.11,3-2.29,6.75-3.68,10.79-3.68,4.59,0,8.76,1.72,11.92,4.55,1.52,1.37,2.81,3.01,3.79,4.84.08.13.16.28.23.43.12.24.24.49.35.76.44.96.79,1.97,1.03,3.01.03.11.05.21.08.32.11.49.2,1,.27,1.51.11.79.16,1.59.16,2.4Z"/>
  <path class="st11" d="M34.96,44.56c0,.27-.01.56-.03.87-.03.49-.07,1.03-.13,1.57-.03.33-.08.67-.13,1h-7.31l-1.41-.23-5.52-.88-.79-.12-1.8-.29c-.79,0-2.49.35-4.29.68-.95.17-1.91.36-2.77.48-.11.01-.21.03-.31.04h-.01c-.93-.2-1.84-.51-2.69-.91-.27-.12-.53-.25-.8-.4-.75-.41-1.47-.91-2.12-1.45-.01-.16-.03-.29-.03-.36,0-.35.01-.68.04-1.01.05-.85.17-1.68.36-2.48.29-1.21.72-2.39,1.29-3.47.11-.23.23-.45.36-.67.05-.11.12-.2.17-.31.24-.39.51-.76.77-1.13.56-.73,1.19-1.43,1.85-2.05h.01c.05-.05.11-.11.16-.15.07-.05.12-.12.19-.16.27-.24.53-.45.81-.65,0-.01.01-.01.01-.01,2.52-1.88,5.64-2.99,9.04-2.99,2.64,0,5.09.67,7.24,1.84h.01c1.84,1.01,3.44,2.39,4.71,4.04.49.64.93,1.32,1.31,2.04h.01l.2.4c.4.79.72,1.61.96,2.47h.01c.01.07.04.13.05.2.16.57.29,1.16.39,1.76.01.12.03.25.04.37.09.64.13,1.29.13,1.96Z"/>
  <path class="st15" d="M32.23,44.41c0,.21,0,.44-.03.65h0v.03c-.03.96-.16,1.91-.37,2.76,0,.05-.01.09-.04.15h-6.23l-5.13-1.11-.68-.15-.11.03-5.69,1.17-.25.05h-.36c-.85,0-1.69-.08-2.51-.24l-.36-.08h-.01c-.93-.2-1.84-.51-2.69-.91-.03-.15-.05-.29-.07-.44-.09-.57-.13-1.17-.13-1.77,0-.23,0-.45.01-.68.04-.72.15-1.43.31-2.11.11-.51.25-1,.43-1.47.15-.41.32-.81.51-1.2.16-.33.35-.65.53-.97.19-.31.39-.6.6-.89.53-.73,1.16-1.41,1.85-2.01.4-.35.84-.68,1.29-.97,1.95-1.28,4.28-2.03,6.8-2.03.49,0,.97.03,1.44.09h.03c1.43.16,2.76.56,3.99,1.16h.01c1.93.95,3.57,2.37,4.77,4.13.2.29.4.61.57.93.15.25.28.52.4.79.19.41.36.85.51,1.29h.01c.15.49.28.99.37,1.51h0c.15.75.23,1.51.23,2.28Z"/>
  <path class="st16" d="M29.48,44.69v.04c0,.79-.09,1.56-.28,2.32-.07.32-.16.64-.28.95h-5.97l-3.05-.84-3.05.84h-3.51c-.85,0-1.69-.08-2.51-.24-.03-.04-.04-.08-.05-.12-.19-.57-.33-1.15-.4-1.75-.05-.39-.08-.79-.08-1.2,0-.16,0-.33.03-.49.01-.63.11-1.24.27-1.83.08-.4.2-.79.36-1.16.05-.19.13-.36.23-.53.2-.45.44-.89.71-1.32.29-.43.61-.83.97-1.2.43-.48.91-.92,1.45-1.28.93-.68,2-1.19,3.16-1.47.77-.21,1.59-.32,2.43-.32,2.67,0,5.05,1.07,6.79,2.79.07.07.15.15.21.24h.01c.19.2.36.4.53.63.49.63.91,1.31,1.23,2.05.16.35.29.71.4,1.08.01.05.03.09.04.15.19.65.31,1.33.33,2.04.03.2.04.41.04.63Z"/>
  <path class="st14" d="M26.75,44.69c0,.55-.07,1.07-.21,1.56-.13.53-.33,1.04-.59,1.52-.04.08-.13.23-.13.23h-11.84s-.03-.04-.03-.05c-.16-.25-.29-.51-.4-.79-.27-.61-.43-1.28-.48-1.97-.03-.16-.03-.33-.03-.49,0-.08,0-.17.01-.25.01-.59.09-1.15.25-1.67.13-.48.31-.92.53-1.35,0,0,.01-.01.01-.03.16-.28.33-.56.53-.83.65-.88,1.52-1.6,2.52-2.07h.01c.32-.16.65-.29,1-.39h.01c.61-.19,1.28-.28,1.96-.28.79,0,1.55.12,2.24.37.25.07.49.17.73.29h.01c1.15.55,2.12,1.4,2.79,2.47.13.2.25.41.36.64.05.09.11.2.15.29.31.69.49,1.45.55,2.25.01.07.01.13.01.21.01.11.01.21.01.32Z"/>
  <g>
    <path class="st9" d="M32,6.67h-16c-5.2,0-9.33,4.13-9.33,9.33v16c0,5.2,4.13,9.33,9.33,9.33h16c5.2,0,9.33-4.13,9.33-9.33v-16c0-5.2-4.13-9.33-9.33-9.33Z"/>
    <circle class="st12" cx="33.33" cy="13.33" r="1.33"/>
  </g>
  <circle class="st9" cx="24" cy="24" r="8"/>
</svg>